<svg width="134" height="128" viewBox="0 0 134 128" fill="none" xmlns="http://www.w3.org/2000/svg">
<path d="M48.2836 30.125L75.9223 18.3445L96.8967 30.454L109.368 45.8935L108.945 65.1477C108.698 69.2162 108.206 78.0137 108.216 80.6558C108.296 101.958 105.144 105.269 85.8745 105.107L61.8156 91.2162L42.4095 100.609C34.0806 95.8008 35.0506 87.2373 24.7336 79.9379C14.4166 72.6386 17.1247 48.3867 17.1247 48.3867C17.1247 48.3867 22.6516 42.9717 30.6261 37.9145C28.422 28.8193 41.9304 31.5402 48.2836 30.125Z" fill="white"/>
<path d="M48.2836 30.125L75.9223 18.3445L96.8967 30.454L109.368 45.8935L108.945 65.1477C108.698 69.2162 108.206 78.0137 108.216 80.6558M48.2836 30.125L69.8278 34.5992L71.9311 43.7779M48.2836 30.125C41.9304 31.5402 28.422 28.8193 30.6261 37.9145M108.216 80.6558L88.5576 81.9389L82.1012 65.5783L64.7663 61.8864M108.216 80.6558C108.296 101.958 105.144 105.269 85.8745 105.107L61.8156 91.2162M61.8156 91.2162L42.4095 100.609C34.0806 95.8008 35.0506 87.2373 24.7336 79.9379C14.4166 72.6386 17.1247 48.3867 17.1247 48.3867M61.8156 91.2162L42.5061 76.2231L45.9523 65.0304M17.1247 48.3867C17.1247 48.3867 22.6516 42.9717 30.6261 37.9145M17.1247 48.3867C17.1247 48.3867 25.3535 42.0042 30.6261 37.9145" stroke="black" stroke-width="3" stroke-linecap="round"/>
<path d="M72.5 72.5L82 87.5V95.5L62 82L56.5 66L72.5 72.5Z" fill="#E9E9E9"/>
<path d="M101.5 52L92 45L85.5 57.5L92 72.5L101.5 66V52Z" fill="#E9E9E9"/>
<path d="M59 39.5L41.5 45L26.5 52V66L41.5 57.5L62 45L59 39.5Z" fill="#E9E9E9"/>
</svg>
