<svg width="40" height="44" viewBox="0 0 40 44" fill="none" xmlns="http://www.w3.org/2000/svg">
<path d="M2.15 37.89L0 35.74L8.7046 27.0354C9.80153 25.9385 10.5833 24.565 11.05 22.915C11.5167 21.265 11.75 18.9567 11.75 15.99C11.75 14.0908 12.1667 12.2243 13 10.3906C13.8333 8.55687 15.1 6.79 16.8 5.09C19.7333 2.15667 22.9514 0.49 26.4543 0.09C29.9572 -0.31 32.8391 0.623333 35.1 2.89C37.3667 5.15667 38.3 8.05667 37.9 11.59C37.5 15.1233 35.8333 18.3567 32.9 21.29C31.2 22.99 29.4331 24.24 27.5994 25.04C25.7657 25.84 23.8992 26.24 22 26.24C19.0333 26.24 16.7083 26.4567 15.025 26.89C13.3417 27.3233 11.95 28.09 10.85 29.19L2.15 37.89ZM16.65 21.29C18.2833 22.9233 20.5 23.5317 23.3 23.115C26.1 22.6983 28.6167 21.3733 30.85 19.14C33.0792 16.9206 34.4115 14.4324 34.8469 11.6754C35.2823 8.91847 34.6833 6.72333 33.05 5.09C31.4167 3.45667 29.2083 2.84833 26.425 3.265C23.6417 3.68167 21.1333 5.00667 18.9 7.24C16.6667 9.47333 15.325 11.9664 14.875 14.7193C14.425 17.4723 15.0167 19.6625 16.65 21.29ZM32.8 43.84C30.8 43.84 29.1 43.14 27.7 41.74C26.3 40.34 25.6 38.64 25.6 36.64C25.6 34.64 26.3 32.94 27.7 31.54C29.1 30.14 30.8 29.44 32.8 29.44C34.8 29.44 36.5 30.14 37.9 31.54C39.3 32.94 40 34.64 40 36.64C40 38.64 39.3 40.34 37.9 41.74C36.5 43.14 34.8 43.84 32.8 43.84ZM32.8 40.84C34 40.84 35 40.44 35.8 39.64C36.6 38.84 37 37.84 37 36.64C37 35.44 36.6 34.44 35.8 33.64C35 32.84 34 32.44 32.8 32.44C31.6 32.44 30.6 32.84 29.8 33.64C29 34.44 28.6 35.44 28.6 36.64C28.6 37.84 29 38.84 29.8 39.64C30.6 40.44 31.6 40.84 32.8 40.84Z" fill="#FF0000"/>
</svg>
