<svg width="64" height="64" viewBox="0 0 64 64" fill="none" xmlns="http://www.w3.org/2000/svg">
<rect width="64" height="64" fill="url(#paint0_linear_8_118)"/>
<rect x="17" y="12" width="11" height="11" stroke="#FF0000" stroke-width="2"/>
<rect x="31" y="12" width="11" height="11" fill="#FF0000" stroke="#FF0000" stroke-width="2"/>
<rect x="17" y="26" width="11" height="11" stroke="#FF0000" stroke-width="2"/>
<rect x="31" y="26" width="11" height="11" stroke="#FF0000" stroke-width="2"/>
<path d="M23.1093 51.504C23.1306 49.616 23.1146 47.824 23.0613 46.128L20.6453 45.968C20.7199 47.9627 20.8266 49.8187 20.9653 51.536L23.1093 51.504ZM25.0293 56.56C24.4213 56.5493 23.7599 56.5493 23.0453 56.56C23.0666 55.4187 23.0933 54.32 23.1253 53.264C22.3466 53.296 21.7013 53.328 21.1893 53.36C21.2106 54.4693 21.2479 55.5147 21.3013 56.496C20.5439 56.5387 19.8026 56.56 19.0773 56.56C18.8426 53.2747 18.5653 49.664 18.2453 45.728C18.9386 44.896 19.6639 44.1333 20.4213 43.44C21.2853 43.4507 22.1706 43.44 23.0773 43.408C23.8453 44.1867 24.6773 45.0293 25.5733 45.936C25.3599 49.7227 25.1786 53.264 25.0293 56.56ZM33.2636 49.088L33.2956 50.816L31.1516 50.704L31.1196 49.312L28.8476 49.2L28.9756 54.768L30.8956 54.848L30.8796 53.392L33.1196 53.424V54.848L31.3756 56.736L28.7836 56.864L26.7516 54.96L26.5276 49.088C26.8476 48.7787 27.1783 48.4427 27.5196 48.08C27.8716 47.7173 28.1383 47.4293 28.3196 47.216L28.6076 46.896L31.1836 47.024L33.2636 49.088ZM39.759 56.672L37.151 56.64C36.479 56.0213 35.8017 55.4187 35.119 54.832L35.055 49.248C34.799 49.2587 34.4897 49.264 34.127 49.264L34.031 47.024L35.055 47.072C35.055 45.92 35.0497 45.2213 35.039 44.976L37.391 45.056L37.311 47.04H39.663C39.6417 47.6373 39.6097 48.4053 39.567 49.344C38.6177 49.312 37.839 49.2853 37.231 49.264L37.167 54.656L39.695 54.48L39.759 56.672Z" fill="#FF0000"/>
<defs>
<linearGradient id="paint0_linear_8_118" x1="0" y1="0" x2="64" y2="64" gradientUnits="userSpaceOnUse">
<stop stop-color="white"/>
<stop offset="1" stop-color="#EFEFEF"/>
</linearGradient>
</defs>
</svg>
