<svg width="64" height="64" viewBox="0 0 64 64" fill="none" xmlns="http://www.w3.org/2000/svg">
<rect width="64" height="64" fill="url(#paint0_linear_8_117)"/>
<path d="M23.5333 37.3815V33.5065H49.4354V37.3815H23.5333ZM23.5333 26.1065V22.2315H49.4354V26.1065H23.5333ZM23.5333 14.7669V10.8919H49.4354V14.7669H23.5333ZM17.3917 39.7711C16.184 39.7711 15.1501 39.362 14.2901 38.544C13.43 37.7259 13 36.7034 13 35.4763C13 34.2492 13.4198 33.2159 14.2594 32.3763C15.099 31.5367 16.1323 31.1169 17.3594 31.1169C18.5865 31.1169 19.609 31.5469 20.4271 32.407C21.2451 33.267 21.6542 34.3009 21.6542 35.5086C21.6542 36.6808 21.2368 37.6842 20.4021 38.5189C19.5673 39.3537 18.5639 39.7711 17.3917 39.7711ZM17.3917 28.4961C16.184 28.4961 15.1501 28.0724 14.2901 27.225C13.43 26.3776 13 25.359 13 24.169C13 22.979 13.43 21.9603 14.2901 21.113C15.1501 20.2656 16.184 19.8419 17.3917 19.8419C18.5639 19.8419 19.5673 20.2656 20.4021 21.113C21.2368 21.9603 21.6542 22.979 21.6542 24.169C21.6542 25.359 21.2368 26.3776 20.4021 27.225C19.5673 28.0724 18.5639 28.4961 17.3917 28.4961ZM17.3271 17.1565C16.1372 17.1565 15.1185 16.7328 14.2711 15.8854C13.4237 15.038 13 14.0194 13 12.8294C13 11.6394 13.4237 10.6208 14.2711 9.77338C15.1185 8.92601 16.1372 8.50232 17.3271 8.50232C18.517 8.50232 19.5357 8.92601 20.3831 9.77338C21.2305 10.6208 21.6542 11.6394 21.6542 12.8294C21.6542 14.0194 21.2305 15.038 20.3831 15.8854C19.5357 16.7328 18.517 17.1565 17.3271 17.1565Z" fill="#F70202"/>
<path d="M21.1459 45.632C21.1032 46.4747 21.0232 47.4027 20.9059 48.416C20.1379 48.3947 19.4392 48.384 18.8099 48.384C18.7992 47.584 18.8045 46.672 18.8259 45.648C17.7485 45.7333 16.8205 45.7973 16.0419 45.84C16.0205 47.2693 16.0365 48.704 16.0899 50.144C16.9859 50.1547 17.9032 50.16 18.8419 50.16C19.5459 50.7787 20.2392 51.3867 20.9219 51.984C20.8472 53.0293 20.8045 53.9733 20.7939 54.816C20.0685 55.4773 19.3645 56.112 18.6819 56.72C17.8072 56.72 16.9859 56.7147 16.2179 56.704C15.2899 56.128 14.4845 55.5413 13.8019 54.944L13.7379 53.152L16.2179 53.12C16.2179 53.8667 16.2285 54.448 16.2499 54.864C16.9752 54.832 17.7859 54.784 18.6819 54.72C18.7032 53.9627 18.7032 53.104 18.6819 52.144C17.9459 52.1333 17.1085 52.1387 16.1699 52.16C15.2632 51.5413 14.3939 50.9227 13.5619 50.304C13.5832 48.576 13.5459 46.9813 13.4499 45.52C14.2392 44.848 14.9912 44.16 15.7059 43.456C16.6552 43.4133 17.6952 43.376 18.8259 43.344C19.5405 44.0693 20.3139 44.832 21.1459 45.632ZM28.009 56.672L25.401 56.64C24.729 56.0213 24.0517 55.4187 23.369 54.832L23.305 49.248C23.049 49.2587 22.7397 49.264 22.377 49.264L22.281 47.024L23.305 47.072C23.305 45.92 23.2997 45.2213 23.289 44.976L25.641 45.056L25.561 47.04H27.913C27.8917 47.6373 27.8597 48.4053 27.817 49.344C26.8677 49.312 26.089 49.2853 25.481 49.264L25.417 54.656L27.945 54.48L28.009 56.672ZM30.9708 51.6C31.0028 52.7307 31.0721 53.872 31.1788 55.024C32.0108 54.9173 32.6241 54.8373 33.0188 54.784C33.0508 53.824 33.0828 52.7733 33.1148 51.632L30.9708 51.6ZM34.4268 56.288L31.3068 56.992C30.6561 56.4587 29.9308 55.952 29.1308 55.472C29.0348 54.2027 28.9121 52.7467 28.7628 51.104C29.3388 50.6667 30.0268 50.176 30.8268 49.632C31.1361 49.664 31.4881 49.7067 31.8828 49.76C32.2881 49.8133 32.6081 49.856 32.8428 49.888L33.1948 49.92L33.2908 48.816L29.8348 48.976C29.7708 48.4213 29.7228 47.728 29.6908 46.896H33.4348C34.1281 47.4613 34.7628 47.9947 35.3388 48.496C35.2214 49.552 35.1148 50.6027 35.0188 51.648C34.9334 52.6933 34.8748 53.472 34.8428 53.984L34.7948 54.768C35.0081 54.8427 35.4188 54.9227 36.0268 55.008L35.5468 56.912L34.4268 56.288ZM41.9934 56.672L39.3854 56.64C38.7134 56.0213 38.036 55.4187 37.3534 54.832L37.2894 49.248C37.0334 49.2587 36.724 49.264 36.3614 49.264L36.2654 47.024L37.2894 47.072C37.2894 45.92 37.284 45.2213 37.2734 44.976L39.6254 45.056L39.5454 47.04H41.8974C41.876 47.6373 41.844 48.4053 41.8014 49.344C40.852 49.312 40.0734 49.2853 39.4654 49.264L39.4014 54.656L41.9294 54.48L41.9934 56.672ZM49.4988 48.96C49.5201 49.3333 49.5361 49.7973 49.5468 50.352C48.6188 50.3413 47.8081 50.3147 47.1148 50.272C47.1148 49.92 47.1201 49.536 47.1308 49.12C46.6081 49.1307 45.9734 49.1627 45.2268 49.216C45.2268 49.9733 45.2374 50.5973 45.2588 51.088C45.8454 51.1413 46.4641 51.136 47.1148 51.072C47.8188 51.616 48.5494 52.1653 49.3068 52.72C49.2641 53.3707 49.2001 54.096 49.1148 54.896C48.3894 55.5787 47.7441 56.1547 47.1788 56.624C46.5174 56.6347 45.7761 56.6453 44.9548 56.656C44.1974 55.9733 43.5681 55.392 43.0668 54.912C43.0241 54.528 42.9921 54.176 42.9708 53.856L45.2268 53.824C45.2374 54.144 45.2428 54.4587 45.2428 54.768C45.8081 54.7573 46.4161 54.7467 47.0668 54.736L47.0988 53.072L45.2748 53.04C44.9228 52.784 44.5548 52.5333 44.1708 52.288C43.7868 52.032 43.4881 51.84 43.2747 51.712L42.9548 51.536C42.9228 50.64 42.9014 49.856 42.8908 49.184C43.7014 48.2987 44.4534 47.5627 45.1468 46.976C45.8614 46.9547 46.5814 46.928 47.3068 46.896C48.1708 47.7707 48.9014 48.4587 49.4988 48.96Z" fill="#F70202"/>
<defs>
<linearGradient id="paint0_linear_8_117" x1="0" y1="0" x2="64" y2="64" gradientUnits="userSpaceOnUse">
<stop stop-color="white"/>
<stop offset="1" stop-color="#EFEFEF"/>
</linearGradient>
</defs>
</svg>
