<svg width="40" height="40" viewBox="0 0 40 40" fill="none" xmlns="http://www.w3.org/2000/svg">
<path d="M9.654 14.05C8.65133 14.05 7.79167 13.693 7.075 12.979C6.35833 12.265 6 11.4066 6 10.404C6 9.40133 6.357 8.54167 7.071 7.825C7.78503 7.10833 8.64337 6.75 9.646 6.75C10.6487 6.75 11.5083 7.107 12.225 7.821C12.9417 8.53503 13.3 9.39337 13.3 10.396C13.3 11.3987 12.943 12.2583 12.229 12.975C11.515 13.6917 10.6566 14.05 9.654 14.05ZM5.29125 40C4.69708 40 4.16667 39.8083 3.7 39.425C3.23333 39.0417 3 38.5667 3 38C2.175 38 1.46875 37.7062 0.88125 37.1188C0.29375 36.5312 0 35.825 0 35V22H6V20.6103C6 19.4368 6.41667 18.4333 7.25 17.6C8.08333 16.7667 9.08965 16.35 10.269 16.35C10.8897 16.35 11.4833 16.4667 12.05 16.7C12.6167 16.9333 13.1167 17.2833 13.55 17.75L16.15 20.7C16.3833 20.9667 16.625 21.2083 16.875 21.425C17.125 21.6417 17.3833 21.8333 17.65 22H32V5.3C32 4.66863 31.7917 4.12745 31.375 3.67645C30.9583 3.22548 30.4333 3 29.8 3C29.4706 3 29.1549 3.03333 28.853 3.1C28.551 3.16667 28.2833 3.31667 28.05 3.55L25.45 6.15C25.6167 6.71667 25.6417 7.29167 25.525 7.875C25.4083 8.45833 25.2 9.01667 24.9 9.55L19.8 4.7C20.3478 4.3357 20.9348 4.10297 21.5609 4.0018C22.187 3.9006 22.8 3.96667 23.4 4.2L26 1.65C26.5 1.15 27.0757 0.75 27.7269 0.45C28.3783 0.15 29.0693 0 29.8 0C31.2596 0 32.4912 0.516667 33.4948 1.55C34.4983 2.58333 35 3.83333 35 5.3V22H40V35C40 35.825 39.7062 36.5312 39.1188 37.1188C38.5312 37.7062 37.825 38 37 38C37 38.5667 36.7667 39.0417 36.3 39.425C35.8333 39.8083 35.2833 40 34.65 40H5.29125ZM3 35H37V25H3V35Z" fill="#FF0000"/>
</svg>
