<svg width="131" height="125" viewBox="0 0 131 125" fill="none" xmlns="http://www.w3.org/2000/svg">
<circle cx="86" cy="86" r="83" fill="url(#paint0_linear_8_103)" stroke="white" stroke-width="6"/>
<path d="M41.818 108.408C41.818 97.596 41.8633 89.1073 41.954 82.942C44.9007 82.8513 48.04 82.8513 51.372 82.942C51.372 82.942 51.4173 87.9513 51.508 97.97C52.9587 97.9247 54.6587 97.9473 56.608 98.038C56.6987 101.869 56.6987 105.325 56.608 108.408C56.608 108.408 51.678 108.408 41.818 108.408ZM68.5269 108.272C68.5269 108.272 65.6029 108.272 59.7549 108.272C59.5509 103.399 59.4489 97.0407 59.4489 89.198C63.4382 89.062 66.4755 89.028 68.5609 89.096C68.5609 92.02 68.5495 95.896 68.5269 100.724C68.5269 105.529 68.5269 108.045 68.5269 108.272ZM68.5269 86.648H59.3809C59.3582 86.104 59.3469 84.8007 59.3469 82.738H68.5609C68.5609 84.846 68.5495 86.1493 68.5269 86.648ZM85.9123 108.272C85.9123 108.272 82.6823 108.272 76.2223 108.272C75.497 105.96 74.715 103.387 73.8763 100.554C73.0376 97.698 72.2443 95.012 71.4963 92.496C70.771 89.98 70.3743 88.6313 70.3063 88.45H79.7923L82.6143 99.058C83.657 94.774 84.643 91.238 85.5723 88.45C85.5723 88.45 87.3063 88.45 90.7743 88.45C88.5983 97.7207 86.9776 104.328 85.9123 108.272ZM103.595 93.006C102.643 92.9607 101.884 93.2893 101.317 93.992C100.751 94.6947 100.467 95.6807 100.467 96.95L105.975 96.814C106.338 95.7487 106.304 94.8533 105.873 94.128C105.465 93.4027 104.706 93.0287 103.595 93.006ZM111.755 99.33C110.871 99.3527 109.5 99.3867 107.641 99.432C105.783 99.4547 103.425 99.5 100.569 99.568C100.501 100.339 100.569 101.03 100.773 101.642C101 102.254 101.295 102.707 101.657 103.002C102.02 103.297 102.383 103.546 102.745 103.75C103.131 103.931 103.459 104.045 103.731 104.09L104.139 104.158C104.23 104.113 104.513 104.113 104.989 104.158C105.488 104.203 106.077 104.079 106.757 103.784C107.46 103.489 107.936 103.036 108.185 102.424H111.313C111.041 104.373 110.225 105.869 108.865 106.912C107.528 107.955 105.261 108.476 102.065 108.476C98.8468 108.476 96.2401 107.739 94.2455 106.266C92.2508 104.793 91.1628 102.367 90.9815 98.99C90.8001 95.2273 91.7408 92.462 93.8035 90.694C95.8888 88.926 98.6881 88.042 102.201 88.042C103.448 88.042 104.593 88.1667 105.635 88.416C106.701 88.6653 107.687 89.0733 108.593 89.64C109.523 90.184 110.259 90.9773 110.803 92.02C111.37 93.04 111.699 94.264 111.789 95.692L111.823 96.032C111.823 96.236 111.823 96.4853 111.823 96.78C111.846 97.052 111.857 97.358 111.857 97.698C111.857 98.0153 111.846 98.3213 111.823 98.616C111.823 98.9107 111.801 99.1487 111.755 99.33Z" fill="white"/>
<path d="M100 49.1683C100 48.4579 100.377 47.8008 100.99 47.442L108.99 42.7612C110.323 41.9811 112 42.9427 112 44.4874V70.5126C112 72.0573 110.323 73.0189 108.99 72.2388L100.99 67.558C100.377 67.1992 100 66.5421 100 65.8317V49.1683Z" fill="white"/>
<rect x="40" y="41" width="57" height="33" rx="6" fill="white"/>
<defs>
<linearGradient id="paint0_linear_8_103" x1="45" y1="6" x2="133.5" y2="150.5" gradientUnits="userSpaceOnUse">
<stop stop-color="#FF0000"/>
<stop offset="1" stop-color="#9C1515"/>
</linearGradient>
</defs>
</svg>
