<svg width="36" height="44" viewBox="0 0 36 44" fill="none" xmlns="http://www.w3.org/2000/svg">
<path d="M0 44V29.5C0 26.8717 0.933333 24.6313 2.8 22.7788C4.66667 20.9263 6.9 20 9.5 20H12.5V3C12.5 2.175 12.7938 1.46875 13.3813 0.88125C13.9688 0.29375 14.675 0 15.5 0H20.5C21.325 0 22.0313 0.29375 22.6188 0.88125C23.2063 1.46875 23.5 2.175 23.5 3V20H26.5C29.1283 20 31.3687 20.9263 33.2212 22.7788C35.0737 24.6313 36 26.8717 36 29.5V44H0ZM3 41H8.25V34.5C8.25 34.075 8.4 33.7188 8.7 33.4313C9 33.1438 9.35833 33 9.775 33C10.1917 33 10.5417 33.1438 10.825 33.4313C11.1083 33.7188 11.25 34.075 11.25 34.5V41H16.5V34.5C16.5 34.075 16.65 33.7188 16.95 33.4313C17.25 33.1438 17.6083 33 18.025 33C18.4417 33 18.7917 33.1438 19.075 33.4313C19.3583 33.7188 19.5 34.075 19.5 34.5V41H24.75V34.5C24.75 34.075 24.9 33.7188 25.2 33.4313C25.5 33.1438 25.8583 33 26.275 33C26.6917 33 27.0417 33.1438 27.325 33.4313C27.6083 33.7188 27.75 34.075 27.75 34.5V41H33V29.5C33 27.6944 32.3681 26.1597 31.1042 24.8958C29.8403 23.6319 28.3056 23 26.5 23H9.5C7.69443 23 6.15972 23.6319 4.89585 24.8958C3.63195 26.1597 3 27.6944 3 29.5V41ZM20.5 20V3H15.5V20H20.5Z" fill="#FF0000"/>
</svg>
