<svg width="41" height="40" viewBox="0 0 41 40" fill="none" xmlns="http://www.w3.org/2000/svg">
<path d="M20.2 40C17.4 40 14.775 39.4667 12.325 38.4C9.875 37.3333 7.74167 35.8917 5.925 34.075C4.10833 32.2583 2.66667 30.125 1.6 27.675C0.533333 25.225 0 22.6 0 19.8C0 14.9333 1.55 10.6417 4.65 6.925C7.75 3.20833 11.7 0.9 16.5 0C15.9 3.26667 16.0833 6.47725 17.05 9.63175C18.0167 12.7863 19.6833 15.5485 22.05 17.9185C24.4167 20.2886 27.175 21.9576 30.325 22.9257C33.475 23.8937 36.7 24.0773 40 23.4764C39.1333 28.2833 36.8333 32.2389 33.1 35.3433C29.3667 38.4478 25.0667 40 20.2 40ZM20.2 37C23.5333 37 26.5667 36.05 29.3 34.15C32.0333 32.25 34.2333 29.8333 35.9 26.9C32.9 26.6333 30.0167 25.9417 27.25 24.825C24.4833 23.7083 22.0417 22.1 19.925 20C17.8083 17.9 16.2 15.475 15.1 12.725C14 9.975 13.3167 7.11667 13.05 4.15C10.1167 5.75 7.70833 7.925 5.825 10.675C3.94167 13.425 3 16.4667 3 19.8C3 24.5778 4.67222 28.6389 8.01665 31.9834C11.3611 35.3278 15.4222 37 20.2 37ZM33.25 13.6L31.15 8.9L26.45 6.8L31.15 4.7L33.25 0L35.35 4.7L40.05 6.8L35.35 8.9L33.25 13.6Z" fill="#FF0000"/>
</svg>
